<svg width="21" height="20" viewBox="0 0 21 20" fill="none" xmlns="http://www.w3.org/2000/svg">
<path d="M16.4284 10.0001C16.0339 10.0001 15.7141 10.3199 15.7141 10.7144V17.8572C15.7141 18.2517 15.3944 18.5714 14.9999 18.5714H2.14284C1.74834 18.5714 1.42855 18.2517 1.42855 17.8572V3.57155C1.42855 3.17705 1.74834 2.85726 2.14284 2.85726H10.7142C11.1087 2.85726 11.4285 2.53746 11.4285 2.14296C11.4285 1.74846 11.1087 1.42871 10.7142 1.42871H2.14284C0.959382 1.42871 0 2.38809 0 3.57155V17.8572C0 19.0406 0.959382 20 2.14284 20H14.9999C16.1834 20 17.1427 19.0406 17.1427 17.8572V10.7143C17.1427 10.3199 16.8229 10.0001 16.4284 10.0001Z" fill="white"/>
<path d="M19.2242 0.800982C18.7113 0.288039 18.0157 -7.24042e-05 17.2904 1.13006e-05C16.5646 -0.00208132 15.8683 0.286533 15.3568 0.801443L5.94828 10.2092C5.87023 10.2878 5.81134 10.3834 5.77614 10.4885L4.34759 14.7742C4.22292 15.1484 4.42527 15.5529 4.79956 15.6775C4.87217 15.7017 4.94822 15.7141 5.02472 15.7142C5.1014 15.714 5.17761 15.7017 5.25043 15.6777L9.53612 14.2492C9.64138 14.214 9.73701 14.1549 9.8154 14.0764L19.2239 4.66785C20.2918 3.60011 20.2919 1.86885 19.2242 0.800982ZM18.2139 3.65854L8.92825 12.9442L6.15399 13.8706L7.07754 11.0999L16.3668 1.81427C16.8774 1.30459 17.7047 1.30543 18.2143 1.81611C18.4578 2.06007 18.595 2.39033 18.596 2.73498C18.5969 3.08148 18.4593 3.41395 18.2139 3.65854Z" fill="white"/>
</svg>
